<svg xmlns="http://www.w3.org/2000/svg" viewBox="0 0 109.08 64"><defs><style>.cls-1{fill:#fff;}</style></defs><title>Bolt White</title><g id="Layer_2" data-name="Layer 2"><g id="Logos"><polygon class="cls-1" points="87.68 0 87.68 48.12 76.36 48.12 76.36 2.41 87.68 0"/><path class="cls-1" d="M55.44,13.66A17.47,17.47,0,1,0,72.91,31.13,17.48,17.48,0,0,0,55.44,13.66Zm0,23.14a5.67,5.67,0,1,1,5.67-5.67A5.67,5.67,0,0,1,55.44,36.8Z"/><circle class="cls-1" cx="55.44" cy="58.34" r="5.66"/><path class="cls-1" d="M30.25,22.67a14.65,14.65,0,0,0,2.22-7.81A14.86,14.86,0,0,0,17.61,0H0V48.12H19.81A14.87,14.87,0,0,0,30.25,22.67ZM11.34,11.32h6.29a3.54,3.54,0,1,1,0,7.08H11.34ZM19.83,36.8H11.34V29.72h8.49a3.54,3.54,0,1,1,0,7.08Z"/><path class="cls-1" d="M109.07,25.63V14.31H103.4V5.66L92.08,8.07V25.63h0V37.36c0,6.9,4.3,10.88,10.62,11.21l.2,0h.66a11.69,11.69,0,0,0,5.52-1.41V38.86a9.46,9.46,0,0,1-2.53.33c-2.26,0-3.13-2-3.13-4.67V25.63Z"/></g></g></svg>