<?xml version="1.0" encoding="UTF-8" standalone="no"?><!DOCTYPE svg PUBLIC "-//W3C//DTD SVG 1.1//EN" "http://www.w3.org/Graphics/SVG/1.1/DTD/svg11.dtd"><svg width="100%" height="100%" viewBox="0 0 140 31" version="1.1" xmlns="http://www.w3.org/2000/svg" xmlns:xlink="http://www.w3.org/1999/xlink" xml:space="preserve" xmlns:serif="http://www.serif.com/" style="fill-rule:evenodd;clip-rule:evenodd;stroke-linejoin:round;stroke-miterlimit:1.41421;"><g><g><path d="M59.963,1.39l6.6,0c6.4,0 11.2,4.6 11.2,10.7c0,6.1 -4.9,10.7 -11.2,10.7l-6.6,0l0,-21.4Zm6.6,18.2c4.6,0 7.6,-3.2 7.6,-7.4c0,-4.2 -3,-7.4 -7.6,-7.4l-3,0l0,14.8l3,0Z" style="fill-rule:nonzero;"/><path d="M80.763,7.79l3.3,0l0,2.7c0.6,-1.7 2.3,-2.8 4,-2.8c0.5,0 0.9,0 1.3,0.1l0,3.4c-0.6,-0.2 -1.1,-0.3 -1.7,-0.3c-1.9,0 -3.6,1.6 -3.6,4.6l0,7.4l-3.3,0l0,-15.1Z" style="fill-rule:nonzero;"/><path d="M90.863,2.19c0,-1.2 1,-2.2 2.2,-2.2c1.2,0 2.2,1 2.2,2.2c0,1.2 -1,2.2 -2.2,2.2c-1.2,0.1 -2.2,-0.9 -2.2,-2.2Zm0.5,5.6l3.3,0l0,15.1l-3.3,0l0,-15.1Z" style="fill-rule:nonzero;"/><path d="M96.463,7.79l3.7,0l4.6,10.6l4.6,-10.6l3.7,0l-6.9,15.1l-2.9,0l-6.8,-15.1Z" style="fill-rule:nonzero;"/><path d="M113.063,15.29c0,-4.4 3.3,-7.8 7.9,-7.8c4,0 7.3,2.6 7.3,7.5c0,0.3 0,0.6 0,1.1l-11.9,0c0.2,2.5 2.1,4.1 4.6,4.1c2.1,0 3.5,-1 4.3,-2.3l2.5,1.8c-1.4,2.2 -3.7,3.5 -6.9,3.5c-4.5,0 -7.8,-3.3 -7.8,-7.9Zm11.8,-1.7c-0.4,-2.2 -2.1,-3.4 -4,-3.4c-2,0 -3.9,1.1 -4.3,3.4l8.3,0Z" style="fill-rule:nonzero;"/><path d="M131.063,7.79l3.3,0l0,2.7c0.6,-1.7 2.3,-2.8 4,-2.8c0.5,0 0.9,0 1.3,0.1l0,3.4c-0.6,-0.2 -1.1,-0.3 -1.7,-0.3c-1.9,0 -3.6,1.6 -3.6,4.6l0,7.4l-3.3,0l0,-15.1Z" style="fill-rule:nonzero;"/></g><g><path d="M39.463,1.49l0,21.6l-5.1,0l0,-20.5l5.1,-1.1Z" style="fill:#34d186;fill-rule:nonzero;"/><path d="M24.963,7.59c-4.3,0 -7.9,3.5 -7.9,7.9c0,4.4 3.5,7.9 7.9,7.9c4.3,0 7.9,-3.5 7.9,-7.9c0,-4.4 -3.6,-7.9 -7.9,-7.9Zm0,10.4c-1.4,0 -2.5,-1.1 -2.5,-2.5c0,-1.4 1.1,-2.5 2.5,-2.5c1.4,0 2.5,1.1 2.5,2.5c0.1,1.4 -1.1,2.5 -2.5,2.5Z" style="fill:#34d186;fill-rule:nonzero;"/><circle cx="24.963" cy="27.69" r="2.5" style="fill:#34d186;"/><path d="M13.663,11.69c0.6,-1 1,-2.2 1,-3.5c0,-3.7 -3,-6.7 -6.7,-6.7l-2.8,0l-5.1,0l0,21.6l8.9,0c3.7,0 6.7,-3 6.7,-6.7c0,-1.8 -0.8,-3.5 -2,-4.7Zm-8.5,-5.1l2.8,0c0.9,0 1.6,0.7 1.6,1.6c0,0.9 -0.7,1.6 -1.6,1.6l-2.8,0l0,-3.2Zm3.8,11.4l-3.8,0l0,-3.2l3.8,0c0.9,0 1.6,0.7 1.6,1.6c0,0.9 -0.7,1.6 -1.6,1.6Z" style="fill:#34d186;fill-rule:nonzero;"/><path d="M49.063,12.99l0,-5.1l-2.5,0l0,-3.9l-5.1,1.1l0,13.1c0,3.1 1.9,4.9 4.8,5l0.4,0c1.4,0 2.5,-0.6 2.5,-0.6l0,-3.7c0,0 -0.5,0.1 -1.1,0.1c-1,0 -1.4,-0.9 -1.4,-2.1l0,-4l2.4,0l0,0.1Z" style="fill:#34d186;fill-rule:nonzero;"/></g></g></svg>