<svg xmlns="http://www.w3.org/2000/svg" xmlns:xlink="http://www.w3.org/1999/xlink" width="152" height="152" viewBox="0 0 152 152">
    <defs>
        <ellipse id="a" cx="75" cy="74.71" rx="75" ry="74.71"/>
        <filter id="b" width="104.7%" height="104.7%" x="-2.3%" y="-2.3%" filterUnits="objectBoundingBox">
            <feGaussianBlur in="SourceAlpha" result="shadowBlurInner1" stdDeviation="2"/>
            <feOffset dy="1" in="shadowBlurInner1" result="shadowOffsetInner1"/>
            <feComposite in="shadowOffsetInner1" in2="SourceAlpha" k2="-1" k3="1" operator="arithmetic" result="shadowInnerInner1"/>
            <feColorMatrix in="shadowInnerInner1" values="0 0 0 0 0 0 0 0 0 0 0 0 0 0 0 0 0 0 0.25 0"/>
        </filter>
    </defs>
    <g fill="none" fill-rule="evenodd">
        <g transform="translate(1 1)">
            <use fill="#FFF" xlink:href="#a"/>
            <use fill="#000" filter="url(#b)" xlink:href="#a"/>
            <use stroke="#ffe0a1" stroke-width="2" xlink:href="#a"/>
        </g>
        <path fill="#D9DADA" d="M119.548 95.532l-2.79-5.279 2.79-5.28c.296-.561-.419-1.277-.98-.979l-5.28 2.79-5.277-2.79a.726.726 0 0 0-.98.98l2.789 5.278-2.79 5.28a.725.725 0 0 0 .98.98l5.28-2.79 5.279 2.79a.725.725 0 0 0 .98-.98"/>
        <path stroke="#595958" stroke-linecap="round" stroke-linejoin="round" stroke-width="1.5" d="M119.548 95.532l-2.79-5.279 2.79-5.28c.296-.561-.419-1.277-.98-.979l-5.28 2.79-5.277-2.79a.726.726 0 0 0-.98.98l2.789 5.278-2.79 5.28a.725.725 0 0 0 .98.98l5.28-2.79 5.279 2.79a.725.725 0 0 0 .98-.98z"/>
        <path fill="#D9DADA" d="M51.06 49.487l-2.792-5.278 2.79-5.28c.296-.562-.418-1.277-.98-.98l-5.28 2.79-5.276-2.79a.726.726 0 0 0-.981.98l2.79 5.278-2.79 5.28a.725.725 0 0 0 .98.98l5.279-2.79 5.28 2.79a.725.725 0 0 0 .98-.98"/>
        <path stroke="#595958" stroke-linecap="round" stroke-linejoin="round" stroke-width="1.5" d="M51.06 49.487l-2.792-5.278 2.79-5.28c.296-.562-.418-1.277-.98-.98l-5.28 2.79-5.276-2.79a.726.726 0 0 0-.981.98l2.79 5.278-2.79 5.28a.725.725 0 0 0 .98.98l5.279-2.79 5.28 2.79a.725.725 0 0 0 .98-.98z"/>
        <path fill="#D9DADA" d="M41.67 67.864l-1.95-3.687 1.949-3.689c.207-.392-.292-.892-.684-.684l-3.689 1.949-3.686-1.95a.507.507 0 0 0-.686.685l1.95 3.687-1.95 3.689a.506.506 0 0 0 .685.684l3.688-1.948 3.689 1.948a.507.507 0 0 0 .684-.684"/>
        <path stroke="#595958" stroke-linecap="round" stroke-linejoin="round" stroke-width="1.5" d="M41.67 67.864l-1.95-3.687 1.949-3.689c.207-.392-.292-.892-.684-.684l-3.689 1.949-3.686-1.95a.507.507 0 0 0-.686.685l1.95 3.687-1.95 3.689a.506.506 0 0 0 .685.684l3.688-1.948 3.689 1.948a.507.507 0 0 0 .684-.684z"/>
        <path fill="#FFC244" d="M57.2 90.25v8.942c0 4.3 8.265 7.788 18.46 7.788 10.196 0 18.46-3.487 18.46-7.788V90.25H57.2z"/>
        <path stroke="#595958" stroke-linecap="round" stroke-linejoin="round" stroke-width="1.5" d="M57.2 90.25v8.942c0 4.3 8.265 7.788 18.46 7.788 10.196 0 18.46-3.487 18.46-7.788V90.25H57.2z"/>
        <path fill="#FFC244" d="M94.12 89.096c0 4.301-8.264 7.788-18.46 7.788-10.195 0-18.46-3.487-18.46-7.788s8.265-7.788 18.46-7.788c10.196 0 18.46 3.487 18.46 7.788"/>
        <path stroke="#595958" stroke-linecap="round" stroke-linejoin="round" stroke-width="1.5" d="M94.12 89.096c0 4.301-8.264 7.788-18.46 7.788-10.195 0-18.46-3.487-18.46-7.788s8.265-7.788 18.46-7.788c10.196 0 18.46 3.487 18.46 7.788zM60.905 93.776v10.117M67.296 96.18v8.963M90.128 94.93v8.963M83.737 96.18v8.963M75.66 96.884v10.117"/>
        <path fill="#FFC244" d="M60.054 78.178v8.942c0 4.301 8.264 7.788 18.46 7.788 10.196 0 18.46-3.487 18.46-7.788v-8.942h-36.92z"/>
        <path stroke="#595958" stroke-linecap="round" stroke-linejoin="round" stroke-width="1.5" d="M60.054 78.178v8.942c0 4.301 8.264 7.788 18.46 7.788 10.196 0 18.46-3.487 18.46-7.788v-8.942h-36.92z"/>
        <path fill="#FFC244" d="M96.974 77.024c0 4.302-8.264 7.788-18.46 7.788-10.196 0-18.46-3.486-18.46-7.788 0-4.3 8.264-7.787 18.46-7.787 10.196 0 18.46 3.486 18.46 7.787"/>
        <path stroke="#595958" stroke-linecap="round" stroke-linejoin="round" stroke-width="1.5" d="M96.974 77.024c0 4.302-8.264 7.788-18.46 7.788-10.196 0-18.46-3.486-18.46-7.788 0-4.3 8.264-7.787 18.46-7.787 10.196 0 18.46 3.486 18.46 7.787zM63.758 81.704v10.117M70.15 84.108v8.964M92.981 82.858v8.964M86.59 84.108v8.964M78.514 84.812V94.93"/>
        <path fill="#FFC244" d="M53.107 65.331v8.942c0 4.301 8.264 7.788 18.46 7.788 10.196 0 18.46-3.487 18.46-7.788v-8.942h-36.92z"/>
        <path stroke="#595958" stroke-linecap="round" stroke-linejoin="round" stroke-width="1.5" d="M53.107 65.331v8.942c0 4.301 8.264 7.788 18.46 7.788 10.196 0 18.46-3.487 18.46-7.788v-8.942h-36.92z"/>
        <path fill="#FFC244" d="M90.027 64.178c0 4.3-8.264 7.788-18.46 7.788-10.196 0-18.46-3.487-18.46-7.788 0-4.302 8.264-7.788 18.46-7.788 10.196 0 18.46 3.486 18.46 7.788"/>
        <path stroke="#595958" stroke-linecap="round" stroke-linejoin="round" stroke-width="1.5" d="M90.027 64.178c0 4.3-8.264 7.788-18.46 7.788-10.196 0-18.46-3.487-18.46-7.788 0-4.302 8.264-7.788 18.46-7.788 10.196 0 18.46 3.486 18.46 7.788zM56.811 68.858v10.117M63.202 71.261v8.964M86.034 70.011v8.964M79.643 71.261v8.964M71.567 71.966v10.117"/>
    </g>
</svg>
