<svg xmlns="http://www.w3.org/2000/svg" xmlns:xlink="http://www.w3.org/1999/xlink" width="152" height="152" viewBox="0 0 152 152">

    <defs>
        <ellipse id="a" cx="75" cy="74.71" rx="75" ry="74.71"/>
        <filter id="b" width="104.7%" height="104.7%" x="-2.3%" y="-2.3%" filterUnits="objectBoundingBox">
            <feGaussianBlur in="SourceAlpha" result="shadowBlurInner1" stdDeviation="2"/>
            <feOffset dy="1" in="shadowBlurInner1" result="shadowOffsetInner1"/>
            <feComposite in="shadowOffsetInner1" in2="SourceAlpha" k2="-1" k3="1" operator="arithmetic" result="shadowInnerInner1"/>
            <feColorMatrix in="shadowInnerInner1" values="0 0 0 0 0 0 0 0 0 0 0 0 0 0 0 0 0 0 0.25 0"/>
        </filter>
    </defs>
    <g fill="none" fill-rule="evenodd">
        <g transform="translate(1 1)">
            <use fill="#FFF" xlink:href="#a"/>
            <use fill="#000" filter="url(#b)" xlink:href="#a"/>
            <use stroke="#ffe0a1" stroke-width="2" xlink:href="#a"/>
        </g>
        <path fill="#FFC244" d="M69.754 85.016a3.687 3.687 0 0 1-3.861 3.502l-20.586-.471a3.689 3.689 0 0 1-3.503-3.865L44.7 65.091c.1-2.034 1.83-3.601 3.863-3.501l15.672.278a3.687 3.687 0 0 1 3.502 3.864l2.018 19.284z"/>
        <path stroke="#595958" stroke-width="1.5" d="M69.754 85.016a3.687 3.687 0 0 1-3.861 3.502l-20.586-.471a3.689 3.689 0 0 1-3.503-3.865L44.7 65.091c.1-2.034 1.83-3.601 3.863-3.501l15.672.278a3.687 3.687 0 0 1 3.502 3.864l2.018 19.284z"/>
        <path fill="#FEFEFE" d="M82.15 106.866a8.658 8.658 0 0 1-8.559 8.76 8.659 8.659 0 0 1-8.758-8.56 8.659 8.659 0 0 1 8.559-8.759 8.658 8.658 0 0 1 8.758 8.56"/>
        <path stroke="#5B5C5D" stroke-linecap="round" stroke-linejoin="round" stroke-width="1.5" d="M82.15 106.866a8.658 8.658 0 0 1-8.559 8.76 8.659 8.659 0 0 1-8.758-8.56 8.659 8.659 0 0 1 8.559-8.759 8.658 8.658 0 0 1 8.758 8.56z"/>
        <path fill="#FFC244" d="M102.625 68.073a3.126 3.126 0 1 1-6.252.071 3.126 3.126 0 0 1 6.252-.071"/>
        <path stroke="#595958" stroke-width="1.5" d="M102.625 68.073a3.126 3.126 0 1 1-6.252.071 3.126 3.126 0 0 1 6.252-.071z"/>
        <path fill="#FEFEFE" d="M79.58 52.802c-.011.303-.015.61-.012.915.113 9.772 8.125 17.6 17.896 17.487l-.084-7.302c-5.738.067-10.444-4.531-10.51-10.269-.004-.31.013-.613.035-.916"/>
        <path stroke="#5B5C5D" stroke-linecap="round" stroke-linejoin="round" stroke-width="1.5" d="M79.58 52.802c-.011.303-.015.61-.012.915.113 9.772 8.125 17.6 17.896 17.487l-.084-7.302c-5.738.067-10.444-4.531-10.51-10.269-.004-.31.013-.613.035-.916"/>
        <path fill="#FEFEFE" d="M84.368 74.263c-.07-6.138 1.284-11.713 3.53-15.765-2.249-3.973-5.294-6.463-8.698-6.423-7.007.08-12.573 10.105-12.432 22.392"/>
        <path stroke="#5B5C5D" stroke-linecap="round" stroke-linejoin="round" stroke-width="1.5" d="M84.368 74.263c-.07-6.138 1.284-11.713 3.53-15.765-2.249-3.973-5.294-6.463-8.698-6.423-7.007.08-12.573 10.105-12.432 22.392"/>
        <path fill="#B5B4B0" d="M100.05 74.232a2.04 2.04 0 0 1-2.032-2.008 2.016 2.016 0 0 1 .578-1.444c.38-.388.887-.605 1.43-.612l5.863-.068c1.13 0 2.042.901 2.055 2.009a2.034 2.034 0 0 1-2.008 2.055l-5.887.068z"/>
        <path fill="#595958" d="M105.913 69.59h-.03l-5.862.068a2.546 2.546 0 0 0-2.514 2.571 2.552 2.552 0 0 0 2.542 2.514l5.893-.068a2.528 2.528 0 0 0 1.789-.766 2.526 2.526 0 0 0 .724-1.806 2.551 2.551 0 0 0-2.542-2.513m0 1.02a1.521 1.521 0 0 1 .017 3.043l-5.862.068h-.019a1.521 1.521 0 0 1-.017-3.042l5.863-.068h.018"/>
        <path fill="#FFC244" stroke="#595958" stroke-width="1.5" d="M62.456 101.628a.524.524 0 0 1-.17-.028l-2.792-.983a.51.51 0 0 1-.301-.68l2.07-4.914a.511.511 0 0 1 .624-.288l2.974.934a.512.512 0 0 1 .311.698l-2.251 4.962a.512.512 0 0 1-.465.3"/>
        <path fill="#FFC244" d="M116.526 72.344a3.555 3.555 0 1 1-7.109.082 3.555 3.555 0 0 1 7.11-.082"/>
        <path stroke="#595958" stroke-linecap="round" stroke-linejoin="round" stroke-width="1.5" d="M116.526 72.344a3.555 3.555 0 1 1-7.109.082 3.555 3.555 0 0 1 7.11-.082z"/>
        <path fill="#B5B4B0" d="M67.03 90.915l18.352-.212.136 11.687-23.698.274z"/>
        <path stroke="#595958" stroke-width="1.5" d="M67.03 90.915l18.352-.212.136 11.687-23.698.274z"/>
        <path fill="#B5B4B0" d="M115.738 92.661l-4.066-16.53-6.382-2.47 1.61 18.34-10.272 6.723-14.87.171a3.916 3.916 0 0 0 .09 7.83l17.297-.2a3.916 3.916 0 0 0 3.87-3.96 3.899 3.899 0 0 0-.897-2.444l7.412-6.474 6.208-.986z"/>
        <path stroke="#595958" stroke-width="1.5" d="M115.738 92.661l-4.066-16.53-6.382-2.47 1.61 18.34-10.272 6.723-14.87.171a3.916 3.916 0 0 0 .09 7.83l17.297-.2a3.916 3.916 0 0 0 3.87-3.96 3.899 3.899 0 0 0-.897-2.444l7.412-6.474 6.208-.986z"/>
        <path fill="#FEFEFE" d="M125.511 106.365a8.66 8.66 0 1 1-17.318.197 8.66 8.66 0 0 1 17.318-.197"/>
        <path stroke="#5B5C5D" stroke-linecap="round" stroke-linejoin="round" stroke-width="1.5" d="M125.511 106.365a8.66 8.66 0 1 1-17.318.197 8.66 8.66 0 0 1 17.318-.197z"/>
        <path fill="#B5B4B0" d="M120.796 106.42a3.945 3.945 0 1 1-7.89.09 3.945 3.945 0 0 1 7.89-.09"/>
        <path stroke="#595958" stroke-width="1.5" d="M120.796 106.42a3.945 3.945 0 1 1-7.89.09 3.945 3.945 0 0 1 7.89-.09z"/>
        <path fill="#B5B4B0" d="M77.436 106.92a3.944 3.944 0 1 1-7.887.092 3.944 3.944 0 0 1 7.887-.091"/>
        <path stroke="#595958" stroke-width="1.5" d="M77.436 106.92a3.944 3.944 0 1 1-7.887.092 3.944 3.944 0 0 1 7.887-.091z"/>
        <path fill="#B5B4B0" d="M111.354 91.743c-5.141 2.025-7.667 7.832-5.642 12.973l18.614-7.332c-2.025-5.138-7.832-7.664-12.972-5.64"/>
        <path stroke="#595958" stroke-width="1.5" d="M111.354 91.743c-5.141 2.025-7.667 7.832-5.642 12.973l18.614-7.332c-2.025-5.138-7.832-7.664-12.972-5.64z"/>
        <path fill="#B5B4B0" d="M73.654 93.986c-7.108.18-12.724 6.09-12.543 13.198l25.742-.657c-.182-7.107-6.091-12.722-13.199-12.541"/>
        <path stroke="#595958" stroke-width="1.5" d="M73.654 93.986c-7.108.18-12.724 6.09-12.543 13.198l25.742-.657c-.182-7.107-6.091-12.722-13.199-12.541z"/>
        <path stroke="#5B5C5D" stroke-linecap="round" stroke-linejoin="round" stroke-width="1.5" d="M68.289 103.362l7.441-.086"/>
        <path fill="#FEFEFE" d="M91.202 87.844a3.568 3.568 0 0 1-3.526 3.609l-19.836.229a3.566 3.566 0 1 1-.082-7.134l19.836-.229a3.566 3.566 0 0 1 3.608 3.525"/>
        <path stroke="#5B5C5D" stroke-linecap="round" stroke-linejoin="round" stroke-width="1.5" d="M91.202 87.844a3.568 3.568 0 0 1-3.526 3.609l-19.836.229a3.566 3.566 0 1 1-.082-7.134l19.836-.229a3.566 3.566 0 0 1 3.608 3.525z"/>
        <path fill="#B5B4B0" d="M113.026 77.084l-8.407-1.43-.073-6.344 8.372-1.623z"/>
        <path stroke="#595958" stroke-width="1.5" d="M113.026 77.084l-8.407-1.43-.073-6.344 8.372-1.623z"/>
        <path fill="#D8D8D8" d="M94.97 82.005c.433-4.48-4.517-4.544-4.967-4.46l-5.284.062a9.297 9.297 0 0 0-.483-2.847l-17.405-.538a9.283 9.283 0 0 0 8.712 12.775l2.36-.027 7.895-.092-.723 8.995 8.31 1.26 1.584-15.128"/>
        <path stroke="#595958" stroke-linecap="round" stroke-linejoin="round" stroke-width="1.5" d="M94.97 82.005c.433-4.48-4.517-4.544-4.967-4.46l-5.284.062a9.297 9.297 0 0 0-.483-2.847l-17.405-.538a9.283 9.283 0 0 0 8.712 12.775l2.36-.027 7.895-.092-.723 8.995 8.31 1.26 1.584-15.128"/>
        <path stroke="#5B5C5D" stroke-linecap="round" stroke-linejoin="round" stroke-width="1.5" d="M86.519 77.586l-8.921.103"/>
        <path fill="#FEFEFE" d="M90.968 93.019h-.018l-2.398.029v-.002l-2.003.024c-.777.008-1.4.646-1.391 1.423l.051 4.419 3.41-.039v-.02l2.398-.026 5.807-.05a5.808 5.808 0 0 0-5.856-5.758"/>
        <path stroke="#5B5C5D" stroke-linecap="round" stroke-linejoin="round" stroke-width="1.5" d="M90.968 93.019h-.018l-2.398.029v-.002l-2.003.024c-.777.008-1.4.646-1.391 1.423l.051 4.419 3.41-.039v-.02l2.398-.026 5.807-.05a5.808 5.808 0 0 0-5.856-5.758z"/>
        <path fill="#FFC244" d="M98.193 71.526a3.126 3.126 0 1 1-6.251.07 3.126 3.126 0 0 1 6.25-.07"/>
        <path stroke="#595958" stroke-width="1.5" d="M98.193 71.526a3.126 3.126 0 1 1-6.251.07 3.126 3.126 0 0 1 6.25-.07z"/>
        <path fill="#FEFEFE" d="M75.125 60.237c1.349 8.531 8.785 15.007 17.679 14.904l-.085-7.301c-4.922.056-9.084-3.319-10.21-7.901"/>
        <path stroke="#5B5C5D" stroke-linecap="round" stroke-linejoin="round" stroke-width="1.5" d="M75.125 60.237c1.349 8.531 8.785 15.007 17.679 14.904l-.085-7.301c-4.922.056-9.084-3.319-10.21-7.901"/>
        <path fill="#FFC244" d="M86.261 57.417c.45.218.937.367 1.449.437.233.032.468.052.71.05a4.822 4.822 0 0 0 4.694-3.996l.727-1.689-9.717-2.607c-.518-.14-.96-.41-1.326-.755l-6.275 5.627 9.738 2.933zM88.03 44.165l7.305 1.96a9.24 9.24 0 0 0-2.279-6.465l-5.025 4.505z"/>
        <path fill="#FFC244" d="M88.464 36.816a9.23 9.23 0 0 0-11.274 6.58l-3.253 10.309 2.586.778 6.275-5.627a3.123 3.123 0 0 1-.89-3.086 3.136 3.136 0 0 1 3.84-2.217l2.283.613 5.026-4.506a9.174 9.174 0 0 0-4.593-2.844"/>
        <path stroke="#5B5C5D" stroke-linecap="round" stroke-linejoin="round" stroke-width="1.5" d="M81.908 45.77a3.136 3.136 0 0 1 3.841-2.216l9.587 2.571c.18-4.242-2.598-8.186-6.872-9.309a9.23 9.23 0 0 0-11.274 6.58l-3.253 10.309 12.324 3.712c.45.218.937.367 1.449.437.233.032.468.053.71.05a4.825 4.825 0 0 0 4.694-3.996l.727-1.689-9.717-2.607a3.136 3.136 0 0 1-2.216-3.842z"/>
        <path fill="#B5B4B0" d="M95.336 46.125l-9.587-2.572a3.136 3.136 0 0 0-1.625 6.06l9.717 2.606 1.203-4.13a9.272 9.272 0 0 0 .292-1.964"/>
        <path stroke="#595958" stroke-width="1.5" d="M95.336 46.125l-9.587-2.572a3.136 3.136 0 0 0-1.625 6.06l9.717 2.606 1.203-4.13a9.272 9.272 0 0 0 .292-1.964z"/>
        <path stroke="#FEFEFE" stroke-linecap="round" stroke-linejoin="round" stroke-width="1.5" d="M76.71 59.828S79.378 71.856 90.7 73.18M74.952 55.841s-5.311 4.707-5.926 14.487"/>
        <path fill="#D8D8D8" d="M69.401 42.047h-33.7"/>
        <path stroke="#595958" stroke-linecap="round" stroke-linejoin="round" stroke-width="1.5" d="M69.401 42.047h-33.7"/>
        <g>
            <path fill="#D8D8D8" d="M66.337 46.132h-16.34"/>
            <path stroke="#595958" stroke-linecap="round" stroke-linejoin="round" stroke-width="1.5" d="M66.337 46.132h-16.34"/>
        </g>
        <g>
            <path fill="#D8D8D8" d="M51.36 102.984H26.51"/>
            <path stroke="#595958" stroke-linecap="round" stroke-linejoin="round" stroke-width="1.5" d="M51.36 102.984H26.51"/>
        </g>
        <g>
            <path fill="#D8D8D8" d="M32.296 98.218H53.06"/>
            <path stroke="#595958" stroke-linecap="round" stroke-linejoin="round" stroke-width="1.5" d="M32.296 98.218H53.06"/>
        </g>
        <g>
            <path fill="#D8D8D8" d="M39.785 107.409h13.276"/>
            <path stroke="#595958" stroke-linecap="round" stroke-linejoin="round" stroke-width="1.5" d="M39.785 107.409h13.276"/>
        </g>
    </g>
</svg>
